# xmcd
#
# Track frame offsets:
# 150
# 21061
# 41032
# 55142
# 79943
# 103793
# 121582
# 137782
# 163142
# 181355
# 201654
# 221966
# 246027
# 267410
# 294574
# 320761
#
# Disc length: 4390 seconds
#
# Revision: 1
# Processed by: cddbd v1.5.2PL0 Copyright (c) Steve Scherf et al.
# Submitted via: TinyPlayer 2.8
#
DISCID=fa112410
DTITLE=Various Artist - Classic Rock Magazine #145: Blues Breakers
DYEAR=2010
DGENRE=Blues
TTITLE0=Joe Bonamassa - Spanish Boots
TTITLE1=Oli Brown - Evil Soul
TTITLE2=Philip Sayce - Scars
TTITLE3=Sandi Thom - Belly of the Blues
TTITLE4=Jay Jesse Johnson - Rattlesnake Stomp
TTITLE5=The Slide - Hit Me
TTITLE6=Stefan Schill - Game Called Love
TTITLE7=Wilson T King - Vigilante Man
TTITLE8=P-A-U-L - I Will Never Tell
TTITLE9=Scott McKeon - What I've Become
TTITLE10=Krissy Matthews - Stone Cold Pizza
TTITLE11=Danny Bryant's RedEyeBand - Just as I Am
TTITLE12=Mitch Laddie - This Time Around
TTITLE13=Aynsley Lister - What's It All About
TTITLE14=Mayor McCa - Hair Farmer
TTITLE15=Data: Flash menu and website links?
EXTD=CDDBSort:various_artists,classic_rock_magazine_145_blues_breakers;
EXTT0=
EXTT1=
EXTT2=
EXTT3=
EXTT4=
EXTT5=
EXTT6=
EXTT7=WilsonTKing
EXTT8=
EXTT9=
EXTT10=
EXTT11=
EXTT12=
EXTT13=
EXTT14=
EXTT15=
PLAYORDER=
